<?xml version="1.0" standalone="no"?>
<!DOCTYPE svg PUBLIC "-//W3C//DTD SVG 20010904//EN"
 "http://www.w3.org/TR/2001/REC-SVG-20010904/DTD/svg10.dtd">
<svg version="1.0" xmlns="http://www.w3.org/2000/svg"
 width="203.000000pt" height="203.000000pt" viewBox="0 0 203.000000 203.000000"
 preserveAspectRatio="xMidYMid meet">
<metadata>
Created by potrace 1.11, written by Peter Selinger 2001-2013
</metadata>
<g transform="translate(0.000000,203.000000) scale(0.100000,-0.100000)"
fill="#000000" stroke="none">
<path d="M0 1015 l0 -1015 1015 0 1015 0 0 1015 0 1015 -1015 0 -1015 0 0
-1015z m415 248 c20 -65 50 -163 66 -218 17 -55 34 -109 38 -120 6 -15 26 36
80 205 40 124 74 231 76 238 3 8 26 12 68 12 62 0 63 0 74 -32 6 -18 40 -121
74 -228 34 -107 65 -199 69 -203 4 -4 21 41 39 100 17 59 49 164 70 233 l39
125 90 3 91 3 -14 -43 c-28 -86 -196 -614 -204 -638 -7 -24 -11 -25 -102 -28
l-94 -3 -28 93 c-16 51 -45 146 -64 211 -20 64 -39 117 -42 117 -3 0 -33 -93
-67 -208 l-61 -207 -92 -3 c-107 -3 -88 -26 -156 188 -25 80 -73 227 -106 328
-32 100 -59 184 -59 187 0 3 40 5 89 5 l90 0 36 -117z m1380 37 l1 -80 -113 0
-113 0 0 -60 0 -60 108 0 107 0 -2 -67 c0 -38 -2 -71 -2 -75 -1 -5 -48 -8
-106 -8 l-105 0 0 -66 0 -65 113 2 112 3 3 -77 3 -77 -206 0 -205 0 0 355 0
355 203 0 202 0 0 -80z"/>
</g>
</svg>
