<svg id="Layer_1" data-name="Layer 1" xmlns="http://www.w3.org/2000/svg" viewBox="0 0 101.13 57.79"><defs><style>.cls-1{fill:#231f20;}</style></defs><title>logosquare</title><path class="cls-1" d="M0,57.79H101.13V0H0ZM53.23,46.52H43.66L37.07,25.26,30.71,46.52H21.19L9.68,11h9.47L26.3,34.55,33.82,11h6.69l7.61,23.49L55.27,11h9.38Zm36.86,0H69.29V11H89.9v8H78.58v5.8H89.25v7.89H78.58v5.94H90.09Z"/><path class="cls-1" d="M0,57.79H101.13V0H0ZM53.23,46.52H43.66L37.07,25.26,30.71,46.52H21.19L9.68,11h9.47L26.3,34.55,33.82,11h6.69l7.61,23.49L55.27,11h9.38Zm36.86,0H69.29V11H89.9v8H78.58v5.8H89.25v7.89H78.58v5.94H90.09Z"/></svg>