<?xml version="1.0" standalone="no"?>
<!DOCTYPE svg PUBLIC "-//W3C//DTD SVG 20010904//EN"
 "http://www.w3.org/TR/2001/REC-SVG-20010904/DTD/svg10.dtd">
<svg version="1.0" xmlns="http://www.w3.org/2000/svg"
 width="203.000000pt" height="203.000000pt" viewBox="0 0 203.000000 203.000000"
 preserveAspectRatio="xMidYMid meet">
<metadata>
Created by potrace 1.11, written by Peter Selinger 2001-2013
</metadata>
<g transform="translate(0.000000,203.000000) scale(0.100000,-0.100000)"
fill="#000000" stroke="none">
<path d="M0 1015 l0 -1015 1015 0 1015 0 0 1015 0 1015 -1015 0 -1015 0 0
-1015z m384 348 c4 -17 33 -110 106 -352 17 -57 35 -99 40 -95 4 5 12 25 18
44 6 19 38 122 72 228 l61 192 63 0 62 0 73 -227 c40 -126 76 -231 80 -236 4
-4 24 48 45 115 21 68 53 174 72 236 l35 112 89 0 89 0 -29 -87 c-16 -49 -68
-209 -115 -356 l-86 -268 -92 3 -91 3 -65 212 c-36 117 -68 209 -72 205 -4 -4
-23 -63 -43 -132 -21 -69 -49 -162 -62 -208 l-25 -83 -91 3 -91 3 -114 350
c-62 193 -113 351 -113 353 0 1 40 2 89 2 77 0 90 -3 95 -17z m1406 -63 l0
-80 -110 0 -110 0 0 -60 0 -60 105 0 105 0 0 -75 0 -75 -105 0 -105 0 0 -65 0
-65 115 0 115 0 0 -75 0 -75 -205 0 -205 0 0 355 0 355 200 0 200 0 0 -80z"/>
</g>
</svg>
